<svg xmlns="http://www.w3.org/2000/svg" viewBox="0 0 1920 150" preserveAspectRatio="xMidYMid slice">
  <defs>
    <linearGradient id="bg" x1="0" y1="0" x2="1" y2="0.2">
      <stop offset="0" stop-color="#FFFFFF"/>
      <stop offset="1" stop-color="#F2F6FB"/>
    </linearGradient>
    <linearGradient id="wedge" x1="0" y1="0" x2="1" y2="1">
      <stop offset="0" stop-color="#12233E"/>
      <stop offset="1" stop-color="#003366"/>
    </linearGradient>
    
  <pattern id="gd" width="14" height="14" patternUnits="userSpaceOnUse">
    <circle cx="1.8" cy="1.8" r="1.8" fill="#F5D547" opacity="0.55"/>
  </pattern>
    
  <pattern id="nd" width="14" height="14" patternUnits="userSpaceOnUse">
    <circle cx="1.6" cy="1.6" r="1.6" fill="#B9C7D9" opacity="0.5"/>
  </pattern>
  </defs>
  <rect width="1920" height="150" fill="url(#bg)"/>
  <polygon points="0,0 460,0 260,150 0,150" fill="url(#wedge)"/>
  <polygon points="460,0 500,0 300,150 260,150" fill="#F5D547" opacity="0.9"/>
  <rect x="20" y="18" width="200" height="60" fill="url(#gd)"/>
  <rect x="1600" y="30" width="240" height="90" fill="url(#nd)"/>
  <path d="M1500,118 L1560,74 M1530,122 L1590,78" stroke="#E3B13E" stroke-width="8" stroke-linecap="round" opacity="0.85"/>
  
  <g transform="translate(1740,8) scale(0.62)" opacity="0.16"
     stroke-width="4" stroke-linecap="round" stroke-linejoin="round"
     >
    
    <rect x="45" y="66" width="42" height="84" rx="7" stroke="#003366" fill="none"/>
    <rect x="117" y="88" width="42" height="62" rx="7" stroke="#003366" fill="none"/>
    <path d="M87,108 L117,108" stroke="#E3B13E" fill="none"/>
    <path d="M52,80 h28 M52,94 h28" stroke="#E3B13E" fill="none" stroke-width="2.5"/>
    <path d="M18,170 Q46,156 74,170 T130,170 T186,170" stroke="#E3B13E" fill="none"/>
  </g>
</svg>
