<svg xmlns="http://www.w3.org/2000/svg" viewBox="0 0 1920 150" preserveAspectRatio="xMidYMid slice">
  <defs>
    <linearGradient id="bg" x1="0" y1="0" x2="1" y2="0.2">
      <stop offset="0" stop-color="#FFFFFF"/>
      <stop offset="1" stop-color="#F2F6FB"/>
    </linearGradient>
    <linearGradient id="wedge" x1="0" y1="0" x2="1" y2="1">
      <stop offset="0" stop-color="#12233E"/>
      <stop offset="1" stop-color="#003366"/>
    </linearGradient>
    
  <pattern id="gd" width="14" height="14" patternUnits="userSpaceOnUse">
    <circle cx="1.8" cy="1.8" r="1.8" fill="#F5D547" opacity="0.55"/>
  </pattern>
    
  <pattern id="nd" width="14" height="14" patternUnits="userSpaceOnUse">
    <circle cx="1.6" cy="1.6" r="1.6" fill="#B9C7D9" opacity="0.5"/>
  </pattern>
  </defs>
  <rect width="1920" height="150" fill="url(#bg)"/>
  <polygon points="0,0 460,0 260,150 0,150" fill="url(#wedge)"/>
  <polygon points="460,0 500,0 300,150 260,150" fill="#F5D547" opacity="0.9"/>
  <rect x="20" y="18" width="200" height="60" fill="url(#gd)"/>
  <rect x="1600" y="30" width="240" height="90" fill="url(#nd)"/>
  <path d="M1500,118 L1560,74 M1530,122 L1590,78" stroke="#E3B13E" stroke-width="8" stroke-linecap="round" opacity="0.85"/>
  
  <g transform="translate(1740,8) scale(0.62)" opacity="0.16"
     stroke-width="4" stroke-linecap="round" stroke-linejoin="round"
     >
    
    <path d="M100,30 C100,30 65,78 65,106 A35,35 0 0 0 135,106 C135,78 100,30 100,30 Z" stroke="#003366" fill="none"/>
    <path d="M78,108 A22,22 0 0 0 100,128" stroke="#E3B13E" fill="none" stroke-width="3"/>
    <path d="M18,152 Q43,138 68,152 T118,152 T168,152" stroke="#003366" fill="none"/>
    <path d="M18,172 Q43,158 68,172 T118,172 T168,172" stroke="#E3B13E" fill="none"/>
  </g>
</svg>
