<svg xmlns="http://www.w3.org/2000/svg" viewBox="0 0 1920 1080" preserveAspectRatio="xMidYMid slice">
  <defs>
    <linearGradient id="bg" x1="0" y1="0" x2="0.7" y2="1">
      <stop offset="0" stop-color="#FBFCFE"/>
      <stop offset="1" stop-color="#F2F6FA"/>
    </linearGradient>
    <linearGradient id="corner" x1="0" y1="0" x2="1" y2="1">
      <stop offset="0" stop-color="#003366" stop-opacity="0.55"/>
      <stop offset="1" stop-color="#0A1B33" stop-opacity="0.9"/>
    </linearGradient>
    
  <pattern id="gd" width="18" height="18" patternUnits="userSpaceOnUse">
    <circle cx="2" cy="2" r="2" fill="#E3B13E" opacity="0.5"/>
  </pattern>
    
  <pattern id="nd" width="18" height="18" patternUnits="userSpaceOnUse">
    <circle cx="1.8" cy="1.8" r="1.8" fill="#C4D2E3" opacity="0.55"/>
  </pattern>
  </defs>
  <rect width="1920" height="1080" fill="url(#bg)"/>
  <rect x="40" y="30" width="260" height="170" fill="url(#nd)"/>
  <rect x="1620" y="60" width="260" height="200" fill="url(#gd)"/>
  <path d="M300,0 L760,0 L300,460 Z" fill="#E9EFF6" opacity="0.55"/>
  <circle cx="330" cy="960" r="150" stroke="#E3B13E" stroke-opacity="0.35" fill="none" stroke-width="2"/>
  <circle cx="330" cy="960" r="210" stroke="#E3B13E" stroke-opacity="0.2" fill="none" stroke-width="2"/>
  <circle cx="330" cy="960" r="90" fill="#E3B13E" opacity="0.18"/>
  <polygon points="1920,640 1920,1080 1080,1080" fill="url(#corner)"/>
  <g stroke="#F5D547" stroke-width="2" fill="none" opacity="0.7">
    <path d="M1380,1010 h140 l60,-60 h120"/>
    <path d="M1450,1060 h190 l70,-70"/>
    <circle cx="1380" cy="1010" r="5" fill="#F5D547"/>
    <circle cx="1450" cy="1060" r="5" fill="#F5D547"/>
  </g>
  <rect x="1660" y="820" width="220" height="150" fill="url(#gd)" opacity="0.5"/>
  
  <g transform="translate(1560,690) scale(1.3)" opacity="0.22"
     stroke-width="4" stroke-linecap="round" stroke-linejoin="round"
     >
    
    <path d="M100,32 L152,54 V104 C152,140 129,161 100,174 C71,161 48,140 48,104 V54 Z" stroke="#FFFFFF" fill="none"/>
    <path d="M100,68 C113,88 124,97 124,114 A24,24 0 0 1 76,114 C76,100 87,90 91,78 C94,94 106,93 100,68 Z" fill="#F5D547" stroke="none"/>
  </g>
  
  <g transform="translate(120,260) scale(1.1)" opacity="0.05"
     stroke-width="4" stroke-linecap="round" stroke-linejoin="round"
     >
    
    <path d="M100,32 L152,54 V104 C152,140 129,161 100,174 C71,161 48,140 48,104 V54 Z" stroke="#003366" fill="none"/>
    <path d="M100,68 C113,88 124,97 124,114 A24,24 0 0 1 76,114 C76,100 87,90 91,78 C94,94 106,93 100,68 Z" fill="#E3B13E" stroke="none"/>
  </g>
</svg>
